<svg width="544" height="649" viewBox="0 0 544 649" fill="none" xmlns="http://www.w3.org/2000/svg">
<path fill-rule="evenodd" clip-rule="evenodd" d="M421.53 565.957C416.388 560.331 415.339 552.12 418.551 545.152C420.914 540.025 422.237 534.298 422.237 528.253C422.237 516.546 417.287 506.027 409.416 498.739C403.758 493.507 402.068 485.262 404.876 478.009C406.624 473.49 407.59 468.572 407.59 463.41C407.59 452.022 402.908 441.772 395.409 434.509C390.585 429.836 388.852 422.533 390.956 416.089C392.24 412.153 392.943 407.939 392.943 403.554C392.943 392.581 388.598 382.65 381.577 375.447C377.281 371.038 375.562 364.553 377.081 358.533C377.872 355.386 378.296 352.089 378.296 348.687C378.296 338.446 374.508 329.119 368.292 322.056C365.558 318.949 363.615 315.158 363.303 310.988C359.416 259.532 317.365 219 266.002 219C214.635 219 172.583 259.532 168.697 310.988C168.384 315.158 166.441 318.949 163.707 322.056C157.492 329.119 153.708 338.446 153.708 348.687C153.708 352.089 154.128 355.386 154.919 358.533C156.437 364.553 154.719 371.038 150.422 375.447C143.401 382.65 139.061 392.581 139.061 403.554C139.061 407.939 139.759 412.153 141.043 416.089C143.148 422.533 141.414 429.836 136.591 434.509C129.096 441.772 124.414 452.022 124.414 463.41C124.414 468.572 125.376 473.49 127.124 478.009C129.931 485.262 128.242 493.507 122.588 498.739C114.713 506.027 109.767 516.546 109.767 528.253C109.767 534.298 111.09 540.025 113.448 545.152C116.661 552.12 115.611 560.331 110.47 565.957C103.405 573.698 99.3138 584.308 100.095 595.905C101.516 617.073 119.751 633 140.526 633H266.002H391.474C412.248 633 430.484 617.073 431.905 595.905C432.686 584.308 428.594 573.698 421.53 565.957Z" fill="#DCBBF3"/>
<mask id="mask0" mask-type="alpha" maskUnits="userSpaceOnUse" x="100" y="219" width="332" height="414">
<path fill-rule="evenodd" clip-rule="evenodd" d="M421.53 565.957C416.388 560.331 415.339 552.12 418.551 545.152C420.914 540.025 422.237 534.298 422.237 528.253C422.237 516.546 417.287 506.027 409.416 498.739C403.758 493.507 402.068 485.262 404.876 478.009C406.624 473.49 407.59 468.572 407.59 463.41C407.59 452.022 402.908 441.772 395.409 434.509C390.585 429.836 388.852 422.533 390.956 416.089C392.24 412.153 392.943 407.939 392.943 403.554C392.943 392.581 388.598 382.65 381.577 375.447C377.281 371.038 375.562 364.553 377.081 358.533C377.872 355.386 378.296 352.089 378.296 348.687C378.296 338.446 374.508 329.119 368.292 322.056C365.558 318.949 363.615 315.158 363.303 310.988C359.416 259.532 317.365 219 266.002 219C214.635 219 172.583 259.532 168.697 310.988C168.384 315.158 166.441 318.949 163.707 322.056C157.492 329.119 153.708 338.446 153.708 348.687C153.708 352.089 154.128 355.386 154.919 358.533C156.437 364.553 154.719 371.038 150.422 375.447C143.401 382.65 139.061 392.581 139.061 403.554C139.061 407.939 139.759 412.153 141.043 416.089C143.148 422.533 141.414 429.836 136.591 434.509C129.096 441.772 124.414 452.022 124.414 463.41C124.414 468.572 125.376 473.49 127.124 478.009C129.931 485.262 128.242 493.507 122.588 498.739C114.713 506.027 109.767 516.546 109.767 528.253C109.767 534.298 111.09 540.025 113.448 545.152C116.661 552.12 115.611 560.331 110.47 565.957C103.405 573.698 99.3138 584.308 100.095 595.905C101.516 617.073 119.751 633 140.526 633H266.002H391.474C412.248 633 430.484 617.073 431.905 595.905C432.686 584.308 428.594 573.698 421.53 565.957Z" fill="white"/>
</mask>
<g mask="url(#mask0)">
<path fill-rule="evenodd" clip-rule="evenodd" d="M421.53 580.921C416.388 575.294 415.339 567.084 418.551 560.116C420.914 554.988 422.237 549.262 422.237 543.217C422.237 531.51 417.287 520.991 409.416 513.703C403.758 508.471 402.068 500.226 404.876 492.973C406.624 488.454 407.59 483.536 407.59 478.373C407.59 466.986 402.908 456.736 395.409 449.473C390.585 444.8 388.852 437.497 390.956 431.053C392.24 427.117 392.943 422.902 392.943 418.518C392.943 407.545 388.598 397.614 381.577 390.411C377.281 386.002 375.562 379.517 377.081 373.497C377.872 370.349 378.296 367.052 378.296 363.651C378.296 353.41 374.508 344.083 368.292 337.02C365.558 333.912 363.615 330.122 363.303 325.952C359.416 274.496 317.365 233.964 266.002 233.964C214.635 233.964 172.583 274.496 168.697 325.952C168.384 330.122 166.441 333.912 163.707 337.02C157.492 344.083 153.708 353.41 153.708 363.651C153.708 367.052 154.128 370.349 154.919 373.497C156.437 379.517 154.719 386.002 150.422 390.411C143.401 397.614 139.061 407.545 139.061 418.518C139.061 422.902 139.759 427.117 141.043 431.053C143.148 437.497 141.414 444.8 136.591 449.473C129.096 456.736 124.414 466.986 124.414 478.373C124.414 483.536 125.376 488.454 127.124 492.973C129.931 500.226 128.242 508.471 122.588 513.703C114.713 520.991 109.767 531.51 109.767 543.217C109.767 549.262 111.09 554.988 113.448 560.116C116.661 567.084 115.611 575.294 110.47 580.921C103.405 588.662 99.3138 599.271 100.095 610.868C101.516 632.037 119.751 647.964 140.526 647.964H266.002H391.474C412.248 647.964 430.484 632.037 431.905 610.868C432.686 599.271 428.594 588.662 421.53 580.921Z" fill="#C4A4E5"/>
<path fill-rule="evenodd" clip-rule="evenodd" d="M190.759 424.125C164.536 447.735 190.759 477.656 165.85 497.038C140.941 516.42 126.693 539.153 138.246 561.365C149.798 583.577 254.579 575.549 254.579 575.549C254.579 575.549 243.243 413.801 190.759 424.125Z" fill="#B387DF"/>
<path fill-rule="evenodd" clip-rule="evenodd" d="M336.358 418.021C362.581 441.631 336.358 471.552 361.268 490.933C386.177 510.315 400.425 533.049 388.872 555.261C381.17 570.069 342.392 574.797 272.539 569.445C280.096 461.613 301.369 411.138 336.358 418.021Z" fill="#A980D3"/>
<path opacity="0.05" fill-rule="evenodd" clip-rule="evenodd" d="M85.3529 219H266V598.084H85.3529V219Z" fill="black"/>
</g>
<path fill-rule="evenodd" clip-rule="evenodd" d="M202.354 404H329.646V497.504C329.646 521.564 346.426 542.213 369.582 546.647L433.634 558.913C465.392 564.994 490.235 590.366 496.19 622.799L501 649H31L35.8103 622.799C41.7649 590.366 66.6081 564.994 98.366 558.913L162.418 546.647C185.574 542.213 202.354 521.564 202.354 497.504V404Z" fill="#FEDDAC"/>
<mask id="mask1" mask-type="alpha" maskUnits="userSpaceOnUse" x="31" y="404" width="470" height="245">
<path fill-rule="evenodd" clip-rule="evenodd" d="M202.354 404H329.646V497.504C329.646 521.564 346.426 542.213 369.582 546.647L433.634 558.913C465.392 564.994 490.235 590.366 496.19 622.799L501 649H31L35.8103 622.799C41.7649 590.366 66.6081 564.994 98.366 558.913L162.418 546.647C185.574 542.213 202.354 521.564 202.354 497.504V404Z" fill="white"/>
</mask>
<g mask="url(#mask1)">
<path fill-rule="evenodd" clip-rule="evenodd" d="M47.534 569C177.591 629 354.409 629 484.466 569H510.792V749H21.2083V569H47.534Z" fill="#AE6DFF"/>
<path d="M45.5186 573.557L49.5495 564.443C178.326 623.852 353.674 623.852 482.45 564.443L486.481 573.557C355.143 634.148 176.857 634.148 45.5186 573.557Z" fill="white"/>
<path opacity="0.1" fill-rule="evenodd" clip-rule="evenodd" d="M21.2083 394H359.021L212.146 649H21.2083V394Z" fill="black"/>
</g>
<path fill-rule="evenodd" clip-rule="evenodd" d="M345 365.369V337.938C345 330.455 339.613 324.114 332.361 323.052L289.039 316.731C281.072 315.569 274.164 310.486 270.567 303.128L266.5 294.823V294.828V294.823L262.433 303.128C258.836 310.486 251.928 315.569 243.961 316.731L200.639 323.052C193.387 324.114 188 330.455 188 337.938V365.369C188 372.111 190.046 378.587 193.24 384.491C196.149 389.854 197.812 396.019 197.812 402.585C197.812 409.005 196.238 415.04 193.466 420.323C191.061 424.899 191.106 430.503 193.77 434.928C199.245 444.035 206.506 452.05 215.289 458.38L243.867 478.985C250.653 483.882 258.576 486.328 266.5 486.328C274.424 486.328 282.347 483.882 289.133 478.985L317.711 458.38C326.494 452.05 333.755 444.035 339.23 434.928C341.894 430.503 341.939 424.899 339.534 420.323C336.762 415.04 335.188 409.005 335.188 402.585C335.188 396.019 336.851 389.854 339.76 384.491C342.954 378.587 345 372.111 345 365.369Z" fill="#FEDDAC"/>
<mask id="mask2" mask-type="alpha" maskUnits="userSpaceOnUse" x="188" y="294" width="157" height="193">
<path fill-rule="evenodd" clip-rule="evenodd" d="M345 365.369V337.938C345 330.455 339.613 324.114 332.361 323.052L289.039 316.731C281.072 315.569 274.164 310.486 270.567 303.128L266.5 294.823V294.828V294.823L262.433 303.128C258.836 310.486 251.928 315.569 243.961 316.731L200.639 323.052C193.387 324.114 188 330.455 188 337.938V365.369C188 372.111 190.046 378.587 193.24 384.491C196.149 389.854 197.812 396.019 197.812 402.585C197.812 409.005 196.238 415.04 193.466 420.323C191.061 424.899 191.106 430.503 193.77 434.928C199.245 444.035 206.506 452.05 215.289 458.38L243.867 478.985C250.653 483.882 258.576 486.328 266.5 486.328C274.424 486.328 282.347 483.882 289.133 478.985L317.711 458.38C326.494 452.05 333.755 444.035 339.23 434.928C341.894 430.503 341.939 424.899 339.534 420.323C336.762 415.04 335.188 409.005 335.188 402.585C335.188 396.019 336.851 389.854 339.76 384.491C342.954 378.587 345 372.111 345 365.369Z" fill="white"/>
</mask>
<g mask="url(#mask2)">
<path opacity="0.05" fill-rule="evenodd" clip-rule="evenodd" d="M178.188 219.642H266.5V500.323H178.188V219.642Z" fill="black"/>
</g>
<path fill-rule="evenodd" clip-rule="evenodd" d="M168.905 295H365.095C367.804 295 370 297.015 370 299.5C370 301.985 367.804 304 365.095 304H168.905C166.196 304 164 301.985 164 299.5C164 297.015 166.196 295 168.905 295Z" fill="#EBADFF"/>
<path opacity="0.73198" fill-rule="evenodd" clip-rule="evenodd" d="M56.692 228.91L56.3997 227.954C55.4308 224.785 52.0765 223.001 48.9076 223.97L41.2572 226.309C38.0883 227.278 36.3047 230.632 37.2736 233.801L38.4431 237.627L40.1973 243.364C41.0047 246.005 43.7999 247.491 46.4407 246.684L48.3533 246.099L48.938 248.012L47.0254 248.597C45.1523 249.169 43.2237 248.918 41.6296 248.049L44.2905 256.753C45.4208 260.45 49.3342 262.531 53.0312 261.4L79.8078 253.214C83.5048 252.083 85.5856 248.17 84.4553 244.473L81.7944 235.77C80.9585 237.381 79.5003 238.668 77.6272 239.241L67.1078 242.457L67.751 244.561C68.0417 245.511 67.5066 246.518 66.556 246.808L60.4356 248.68C59.4849 248.97 58.4786 248.435 58.188 247.484L57.5448 245.381L54.6759 246.258L54.0911 244.345L56.96 243.468C56.6371 242.412 57.2316 241.294 58.2879 240.971L64.0257 239.216C65.082 238.893 66.2001 239.488 66.5231 240.544L77.0424 237.328C79.6832 236.521 81.1695 233.726 80.3621 231.085L78.6079 225.347C78.1234 223.763 76.4463 222.871 74.8618 223.355L56.692 228.91ZM53.5308 228.831L53.8231 229.787L40.4349 233.881L40.1425 232.924C39.6581 231.34 40.5498 229.663 42.1343 229.178L49.7847 226.839C51.3692 226.355 53.0463 227.247 53.5308 228.831Z" fill="white"/>
<path opacity="0.73577" fill-rule="evenodd" clip-rule="evenodd" d="M104.011 79.8887L131.888 71.8952L130.51 67.0889C130.053 65.4962 128.392 64.5753 126.799 65.032C126.68 65.066 126.564 65.1073 126.451 65.1557L102.076 75.5362C99.7794 76.5393 98.5802 79.0875 99.2709 81.4964L99.7842 83.2865C100.648 81.69 102.129 80.4286 104.011 79.8887ZM128.884 90.4417C128.123 87.7873 129.657 85.0184 132.312 84.2572L142.886 81.2252L145.642 90.8378L135.068 93.8699C132.414 94.631 129.645 93.0962 128.884 90.4417ZM135.323 72.9908L104.563 81.8112C103.252 82.1871 102.18 83.0624 101.543 84.2383L100.572 86.0333L106.647 107.221C107.408 109.875 110.177 111.41 112.832 110.649L143.592 101.829C146.247 101.068 147.781 98.2986 147.02 95.6442L146.193 92.7604L135.62 95.7924C131.903 96.858 128.027 94.7092 126.961 90.993C125.896 87.2768 128.044 83.4003 131.761 82.3347L142.334 79.3027L141.508 76.4189C140.746 73.7645 137.978 72.2296 135.323 72.9908Z" fill="white"/>
<path opacity="0.452474" fill-rule="evenodd" clip-rule="evenodd" d="M228 4C228 1.79086 226.209 0 224 0C221.791 0 220 1.79086 220 4V15.9937V17C220 17.5523 219.552 18 219 18C218.448 18 218 17.5523 218 17V15.9921V15C218 13.3431 216.657 12 215 12C213.343 12 212 13.3431 212 15V15.9874V17C212 17.5523 211.552 18 211 18C210.448 18 210 17.5523 210 17V15.9858V15C210 13.3431 208.657 12 207 12C205.343 12 204 13.3431 204 15V15.981V17C204 17.5523 203.552 18 203 18C202.448 18 202 17.5523 202 17V15.9795V10C202 7.79086 200.209 6 198 6C195.791 6 194 7.79086 194 10V15.9731V21.8708V29C194 36.1797 199.82 42 207 42H215C222.18 42 228 36.1797 228 29V24H207C205.343 24 204 25.3431 204 27C204 28.6569 205.343 30 207 30H217C217.552 30 218 30.4477 218 31C218 31.5523 217.552 32 217 32H207C204.239 32 202 29.7614 202 27C202 24.2386 204.239 22 207 22H228V21.8708V16V4Z" fill="white"/>
<path opacity="0.452474" fill-rule="evenodd" clip-rule="evenodd" d="M265.985 105.935C265.307 110.976 263.752 115.504 261.316 119.529C261.744 120.266 261.99 121.122 261.99 122.036V143.992C261.99 144.588 261.885 145.16 261.694 145.69C263.212 146.491 264.967 146.924 266.944 146.985C273.066 147.014 277.732 147 280.969 146.943C286.48 146.845 288.827 145.76 289.893 142.289C291.051 138.516 292.312 127.14 291.93 121.963C291.715 119.044 290.512 117.571 288.201 117.399C287.316 117.333 286.29 117.449 284.848 117.739C284.298 117.849 282.591 118.235 281.513 118.478C281.077 118.577 280.744 118.652 280.631 118.677C279.975 118.82 279.368 118.945 278.767 119.06C275.892 119.61 274.59 119.505 274.169 118.983C273.787 118.508 273.74 117.725 273.882 114.671C273.932 113.597 273.956 112.875 273.963 112.065C274.005 107.01 271.511 104.517 266.856 105.078C266.404 105.132 266.046 105.485 265.985 105.935ZM256.992 119.038H252.998C251.343 119.038 250 120.38 250 122.036V143.992C250 145.648 251.343 146.99 252.998 146.99H256.992C258.647 146.99 259.99 145.648 259.99 143.992V122.036C259.99 120.38 258.647 119.038 256.992 119.038Z" fill="white"/>
<path opacity="0.769741" fill-rule="evenodd" clip-rule="evenodd" d="M384.976 64.6293C384.701 64.5309 384.337 64.3793 383.907 64.1637C383.856 64.7295 383.758 65.3481 383.599 66.0089C383.226 67.5587 382.565 69.108 381.562 70.6199C381.533 70.6148 381.504 70.6108 381.474 70.608C381.052 70.5673 380.245 70.3925 379.183 69.992C377.382 69.3129 375.575 68.2256 373.882 66.6367C372.988 65.7972 372.148 64.836 371.373 63.7444C369.076 60.5095 367.712 56.8427 367.277 52.7255C368.732 49.9511 370.82 47.5603 373.348 45.7447C373.444 49.066 374.243 52.1818 375.744 55.0802C376.472 56.486 377.322 57.7211 378.273 58.7951C378.08 58.4762 377.895 58.1456 377.717 57.8029C376.176 54.8258 375.461 51.5987 375.572 48.1034C378.382 46.5982 381.593 45.7447 385.003 45.7447C391.196 45.7447 396.731 48.5586 400.401 52.9775C396.826 52.0586 393.244 51.9254 389.665 52.5807C386.454 53.1685 383.743 54.3574 381.506 55.9719C380.095 56.9903 379.058 58.0175 378.36 58.8923C378.506 59.0556 378.656 59.2151 378.807 59.3708C379.195 59.7697 379.584 60.1334 379.969 60.464C380.064 60.3424 380.175 60.2067 380.301 60.059C380.963 59.284 381.795 58.5044 382.807 57.7742C384.782 56.3487 387.187 55.2938 390.065 54.767C394.098 54.0287 398.128 54.3879 402.175 55.8499C402.257 55.8796 402.341 55.899 402.424 55.9087C403.987 58.6704 404.912 61.8406 405 65.2193C404.924 65.1723 404.848 65.1259 404.772 65.0799C403.317 74.5005 395.29 81.7514 385.522 82C386.923 81.2032 388.303 80.1794 389.613 78.8992C390.918 77.6231 392.108 76.1333 393.156 74.4154C395.408 70.7224 396.706 66.6599 397.05 62.2421C396.745 62.1934 396.438 62.1511 396.129 62.1152C395.692 62.0645 395.262 62.0288 394.839 62.0075C394.529 66.1047 393.336 69.8502 391.258 73.2583C390.307 74.8172 389.233 76.162 388.059 77.3096C386.417 78.9144 384.663 80.0604 382.915 80.8249C381.938 81.2523 381.183 81.474 380.756 81.5547C378.625 81.0939 376.621 80.2938 374.802 79.2136C377.709 77.8355 380.178 75.9234 382.199 73.4822C384.945 70.1666 386.06 66.8005 386.169 63.8904C385.699 64.1469 385.301 64.3983 384.976 64.6293ZM378.399 72.0716C379.011 72.3024 379.561 72.472 380.035 72.592C378.029 74.8467 375.57 76.5582 372.644 77.7324C367.989 74.0698 365 68.3856 365 62.0033C365 60.1569 365.25 58.369 365.718 56.6716C366.475 59.7 367.756 62.4888 369.561 65.0311C370.422 66.2438 371.359 67.3168 372.361 68.2572C374.276 70.0547 376.334 71.2932 378.399 72.0716Z" fill="white"/>
<path opacity="0.452474" fill-rule="evenodd" clip-rule="evenodd" d="M511.254 228.686L515.766 230.328C514.938 230.677 514.142 231.099 513.388 231.591L510.57 230.565L510.228 231.505C509.863 232.506 509.839 233.549 510.095 234.506C508.999 235.811 508.108 237.327 507.491 239.022C505.63 244.136 506.698 249.754 510.103 253.807L514.322 255.343L517.4 246.885C517.589 246.366 518.162 246.099 518.681 246.288C519.2 246.477 519.468 247.05 519.279 247.569L516.201 256.027L518.08 256.711L521.158 248.253C521.347 247.734 521.921 247.467 522.44 247.656C522.959 247.845 523.227 248.418 523.038 248.937L519.96 257.395L524.178 258.93C529.392 258.014 533.821 254.396 535.682 249.283C538.516 241.498 534.502 232.891 526.717 230.057C526.401 229.942 526.084 229.839 525.766 229.746L525.777 229.715L512.622 224.927L511.254 228.686Z" fill="white"/>
<path opacity="0.606841" fill-rule="evenodd" clip-rule="evenodd" d="M474.681 288.119C476.039 295.407 472.995 303.136 466.883 307.972L450.687 320.784C450.289 321.099 449.718 321.066 449.36 320.707L441.293 312.64C440.934 312.282 440.901 311.711 441.216 311.313L454.028 295.117C458.864 289.005 466.593 285.961 473.881 287.319C474.287 287.395 474.605 287.713 474.681 288.119ZM460.464 294.464C462.417 292.512 465.583 292.512 467.535 294.464C469.488 296.417 469.488 299.583 467.535 301.535C465.583 303.488 462.417 303.488 460.464 301.535C458.512 299.583 458.512 296.417 460.464 294.464ZM466.121 300.121C467.293 298.95 467.293 297.05 466.121 295.879C464.95 294.707 463.05 294.707 461.879 295.879C460.707 297.05 460.707 298.95 461.879 300.121C463.05 301.293 464.95 301.293 466.121 300.121ZM447.114 321.289L446.213 322.19C445.133 323.27 443.383 323.27 442.304 322.19L439.81 319.696C438.73 318.616 438.73 316.867 439.81 315.787L440.71 314.886L447.114 321.289ZM437.445 304.832L441.601 307.602L450.626 296.195L448.447 295.106C448.098 294.931 447.68 294.975 447.375 295.219L437.375 303.219C436.847 303.642 436.882 304.457 437.445 304.832ZM465.805 311.374L466.894 313.553C467.069 313.902 467.025 314.32 466.781 314.625L458.781 324.625C458.358 325.153 457.543 325.118 457.168 324.555L454.398 320.399L465.805 311.374Z" fill="white"/>
<path opacity="0.452474" fill-rule="evenodd" clip-rule="evenodd" d="M81.2026 363.405C81.6118 362.702 82.1279 362.099 82.7188 361.604C79.603 360.704 77.083 360.757 76.282 362.121C74.9329 364.417 78.5633 368.667 84.2061 371.869C89.8441 375.068 95.3941 376.032 96.7373 373.745C97.543 372.374 96.4675 370.434 93.8945 368C93.7592 368.765 93.489 369.519 93.0751 370.231C92.8392 370.636 92.4273 370.908 91.9617 370.965C90.3942 371.158 88.4103 370.503 85.8574 369.04C83.3021 367.576 81.7375 366.197 81.1194 364.748C80.9337 364.312 80.9645 363.815 81.2026 363.405ZM82.0669 363.908C83.6847 361.127 87.2656 360.175 90.0662 361.78C92.8691 363.386 93.83 366.945 92.2109 369.728C92.1322 369.863 91.9949 369.954 91.8397 369.973C90.5283 370.134 88.7147 369.525 86.3545 368.173C83.9937 366.82 82.5551 365.565 82.0391 364.356C81.9772 364.21 81.9875 364.045 82.0669 363.908ZM87.6165 374.628C86.0733 375.197 84.2921 375.117 82.7856 374.336C81.1433 373.484 80.1252 371.953 80.0103 370.294C81.1078 371.143 82.353 371.967 83.7127 372.739C85.0375 373.49 86.3519 374.124 87.6165 374.628Z" fill="white"/>
<path opacity="0.452474" d="M171.73 203.323L163.78 214.547C163.28 215.253 162.182 215.035 161.989 214.192L158.951 200.894L146.489 195.345C145.736 195.01 145.689 193.959 146.409 193.558L158.271 186.948L158.833 172.29C158.867 171.411 159.937 171.001 160.55 171.631L170.776 182.148L184.014 179.123C184.817 178.939 185.485 179.752 185.15 180.504L179.602 192.966L186.242 204.882C186.663 205.637 185.992 206.534 185.149 206.345L171.73 203.323Z" fill="white"/>
<path opacity="0.452474" d="M486.181 100.423L479.594 102.398C479.18 102.522 478.814 102.098 478.998 101.706L481.894 95.5314L478.692 89.5091C478.499 89.1454 478.803 88.7169 479.211 88.7804L485.919 89.8274L490.653 84.2253C490.937 83.8896 491.484 84.057 491.532 84.494L492.324 91.7855L498.471 94.6689C498.844 94.8439 498.857 95.3696 498.493 95.563L492.471 98.7651L491.419 105.504C491.353 105.931 490.812 106.078 490.538 105.744L486.181 100.423Z" fill="white"/>
<path opacity="0.778158" d="M396.484 176.91L397.834 175.937C403.114 172.129 410.372 173.409 414.031 178.793C417.679 184.159 416.371 191.573 411.109 195.368L391.459 209.538C391.002 209.867 390.364 209.754 390.047 209.289L376.429 189.253C372.782 183.888 374.089 176.473 379.352 172.678C384.632 168.87 391.89 170.15 395.549 175.534L396.484 176.91Z" fill="white"/>
<path opacity="0.452474" d="M9.18286 128.982L9.18583 128.15C9.19744 124.895 11.8483 122.335 15.1015 122.437C18.3439 122.539 20.959 125.247 20.9474 128.491L20.9042 140.603C20.9032 140.885 20.67 141.11 20.3886 141.101L8.28175 140.722C5.03941 140.62 2.42424 137.912 2.43581 134.668C2.44742 131.413 5.0983 128.854 8.35149 128.956L9.18286 128.982Z" fill="white"/>
<path fill-rule="evenodd" clip-rule="evenodd" d="M302.342 26.2115C302.596 25.8851 302.538 25.4144 302.211 25.1602L293.21 18.1581C292.884 17.904 292.413 17.9624 292.158 18.2885C291.904 18.6149 291.962 19.0857 292.289 19.3399L301.29 26.342C301.616 26.596 302.087 26.5376 302.342 26.2115ZM299.169 19.2753C298.907 19.596 298.955 20.0685 299.275 20.3307L309.447 28.6465C311.244 30.088 311.521 32.6891 310.07 34.464C308.617 36.2424 305.981 36.5168 304.185 35.076C301.513 32.9693 298.52 30.6628 295.203 28.152C294.872 27.902 294.402 27.9671 294.152 28.2974C293.902 28.6277 293.967 29.0981 294.297 29.3481C297.607 31.8525 300.591 34.1532 303.252 36.2499C305.684 38.2022 309.258 37.8287 311.232 35.4131C313.209 32.9929 312.833 29.4401 310.392 27.4809L300.225 19.1694C299.904 18.9072 299.432 18.9546 299.169 19.2753ZM302.201 29.1525C302.532 29.4009 302.598 29.8705 302.35 30.2012C302.101 30.5316 301.631 30.5982 301.3 30.3499L293.299 24.3475C292.968 24.0991 292.902 23.6295 293.151 23.2988C293.399 22.9684 293.869 22.9019 294.2 23.1501L302.201 29.1525ZM303.75 31.25C303.75 32.6307 304.869 33.75 306.25 33.75C307.631 33.75 308.75 32.6307 308.75 31.25C308.75 29.8693 307.631 28.75 306.25 28.75C304.869 28.75 303.75 29.8693 303.75 31.25Z" fill="white"/>
</svg>
